canva<svg xmlns="http://www.w3.org/2000/svg" viewBox="0 0 133 33">
  <title>haus-haus</title>
  <rect y="9" width="8" height="24"/>
  <path d="M10,17h0a8,8,0,0,1,8,8v8a0,0,0,0,1,0,0H10a0,0,0,0,1,0,0V17A0,0,0,0,1,10,17Z"/>
  <path d="M30,17h8a0,0,0,0,1,0,0V33a0,0,0,0,1,0,0h0a8,8,0,0,1-8-8V17A0,0,0,0,1,30,17Z" transform="translate(68 50) rotate(-180)"/>
  <path d="M20,17h0a8,8,0,0,1,8,8v0a8,8,0,0,1-8,8h0a0,0,0,0,1,0,0V17A0,0,0,0,1,20,17Z" transform="translate(48 50) rotate(-180)"/>
  <path d="M40,17h8a0,0,0,0,1,0,0V33a0,0,0,0,1,0,0h0a8,8,0,0,1-8-8V17A0,0,0,0,1,40,17Z"/>
  <path d="M50,17h8a0,0,0,0,1,0,0v8a8,8,0,0,1-8,8h0a0,0,0,0,1,0,0V17A0,0,0,0,1,50,17Z"/>
  <path d="M64,21h8a0,0,0,0,1,0,0V37a0,0,0,0,1,0,0h0a8,8,0,0,1-8-8V21A0,0,0,0,1,64,21Z" transform="translate(39 97) rotate(-90)"/>
  <path d="M64,11h0a8,8,0,0,1,8,8v8a0,0,0,0,1,0,0H64a0,0,0,0,1,0,0V11a0,0,0,0,1,0,0Z" transform="translate(49 87) rotate(-90)"/>
  <rect x="76" y="3" width="4" height="12"/>
  <path d="M81,7h0a4,4,0,0,1,4,4v4a0,0,0,0,1,0,0H81a0,0,0,0,1,0,0V7a0,0,0,0,1,0,0Z"/>
  <path d="M91,7h4a0,0,0,0,1,0,0v8a0,0,0,0,1,0,0h0a4,4,0,0,1-4-4V7a0,0,0,0,1,0,0Z" transform="translate(186 22) rotate(180)"/>
  <path d="M86,7h0a4,4,0,0,1,4,4v0a4,4,0,0,1-4,4h0a0,0,0,0,1,0,0V7A0,0,0,0,1,86,7Z" transform="translate(176 22) rotate(-180)"/>
  <path d="M96,7h4a0,0,0,0,1,0,0v8a0,0,0,0,1,0,0h0a4,4,0,0,1-4-4V7A0,0,0,0,1,96,7Z"/>
  <path d="M101,7h4a0,0,0,0,1,0,0v4a4,4,0,0,1-4,4h0a0,0,0,0,1,0,0V7A0,0,0,0,1,101,7Z"/>
  <path d="M108,9h4a0,0,0,0,1,0,0v8a0,0,0,0,1,0,0h0a4,4,0,0,1-4-4V9A0,0,0,0,1,108,9Z" transform="translate(97 123) rotate(-90)"/>
  <path d="M108,4h0a4,4,0,0,1,4,4v4a0,0,0,0,1,0,0h-4a0,0,0,0,1,0,0V4A0,0,0,0,1,108,4Z" transform="translate(102 118) rotate(-90)"/>
  <rect x="114" width="2" height="6"/>
  <path d="M116.5,2h0a2,2,0,0,1,2,2V6a0,0,0,0,1,0,0h-2a0,0,0,0,1,0,0V2A0,0,0,0,1,116.5,2Z"/>
  <path d="M121.5,2h2a0,0,0,0,1,0,0V6a0,0,0,0,1,0,0h0a2,2,0,0,1-2-2V2A0,0,0,0,1,121.5,2Z" transform="translate(245 8) rotate(180)"/>
  <path d="M119,2h0a2,2,0,0,1,2,2V4a2,2,0,0,1-2,2h0a0,0,0,0,1,0,0V2A0,0,0,0,1,119,2Z" transform="translate(240 8) rotate(-180)"/>
  <path d="M124,2h2a0,0,0,0,1,0,0V6a0,0,0,0,1,0,0h0a2,2,0,0,1-2-2V2A0,0,0,0,1,124,2Z"/>
  <path d="M126.5,2h2a0,0,0,0,1,0,0V4a2,2,0,0,1-2,2h0a0,0,0,0,1,0,0V2A0,0,0,0,1,126.5,2Z"/>
  <path d="M130,3h2a0,0,0,0,1,0,0V7a0,0,0,0,1,0,0h0a2,2,0,0,1-2-2V3A0,0,0,0,1,130,3Z" transform="translate(126 136) rotate(-90)"/>
  <path d="M130,.5h0a2,2,0,0,1,2,2v2a0,0,0,0,1,0,0h-2a0,0,0,0,1,0,0V.5A0,0,0,0,1,130,.5Z" transform="translate(128.5 133.5) rotate(-90)"/>
</svg>
